# xmcd CD database file
#
# Track frame offsets:
#	183
#	31858
#	68708
#	101303
#	132733
#	152933
#	181958
#	202995
#	226083
#	244908
#
# Disc length: 3669 seconds
#
# Revision: 0
# Processed by: cddbd v1.5.1PL0 Copyright (c) Steve Scherf et al.
# Submitted via: CDex 1.51
#
DISCID=7f0e530a
DTITLE=Baikida Carroll - Door of the Cage
DYEAR=1995
DGENRE=Jazz
TTITLE0=Door of the Cage
TTITLE1=King
TTITLE2=At Roi
TTITLE3=Against your warmth
TTITLE4=Speak
TTITLE5=Legacies
TTITLE6=I thought you knew
TTITLE7=Hannah Pearl
TTITLE8=I need...
TTITLE9=Spade Hearts in Clubs
EXTD=YEAR: 1995
EXTT0=
EXTT1=
EXTT2=
EXTT3=
EXTT4=
EXTT5=
EXTT6=
EXTT7=
EXTT8=
EXTT9=
PLAYORDER=
